<?xml version="1.0" standalone="no"?>
<!DOCTYPE svg PUBLIC "-//W3C//DTD SVG 20010904//EN"
 "http://www.w3.org/TR/2001/REC-SVG-20010904/DTD/svg10.dtd">
<svg version="1.0" xmlns="http://www.w3.org/2000/svg"
 width="128.000000pt" height="128.000000pt" viewBox="0 0 128.000000 128.000000"
 preserveAspectRatio="xMidYMid meet">
<metadata>
Created by potrace 1.14, written by Peter Selinger 2001-2017
</metadata>
<g transform="translate(0.000000,128.000000) scale(0.100000,-0.100000)"
fill="#000000" stroke="none">
<path d="M877 918 c-138 -30 -217 -140 -212 -295 7 -204 165 -320 366 -268 30
8 68 16 84 19 17 2 32 5 35 5 3 1 4 44 2 97 -4 108 -6 110 -77 99 -43 -6 -54
-25 -16 -25 22 0 31 -27 31 -96 0 -49 -2 -53 -34 -68 -80 -38 -196 -12 -258
56 -52 58 -63 95 -63 203 0 85 4 107 24 148 35 72 85 101 181 105 53 3 87 -1
113 -12 34 -14 37 -18 38 -58 l1 -43 19 40 c28 61 25 72 -23 87 -51 14 -158
18 -211 6z"/>
<path d="M172 911 c-37 -7 -37 -7 -21 -61 14 -46 31 -53 29 -12 -1 15 -2 32
-1 37 1 6 36 11 79 13 l78 3 -1 -268 -1 -268 58 -1 c32 0 58 1 58 3 0 2 -11 8
-25 13 -14 5 -26 15 -26 22 -1 7 -2 122 -3 256 l-1 243 75 -3 75 -3 6 -40 5
-40 21 45 c11 25 17 49 13 54 -10 10 -369 16 -418 7z"/>
</g>
</svg>
