<svg xmlns="http://www.w3.org/2000/svg" version="1.1" xmlns:xlink="http://www.w3.org/1999/xlink" xmlns:svgjs="http://svgjs.dev/svgjs" width="2000" height="282" viewBox="0 0 2000 282"><g transform="matrix(1,0,0,1,-1.2121212121212466,-0.4689588937699227)"><svg viewBox="0 0 396 56" data-background-color="#1f2d5a" preserveAspectRatio="xMidYMid meet" height="282" width="2000" xmlns="http://www.w3.org/2000/svg" xmlns:xlink="http://www.w3.org/1999/xlink"><g id="tight-bounds" transform="matrix(1,0,0,1,0.2400000000000091,0.0931265888337407)"><svg viewBox="0 0 395.52 55.81374682233252" height="55.81374682233252" width="395.52"><g><svg viewBox="0 0 467.58196478285345 65.98276041939468" height="55.81374682233252" width="395.52"><g transform="matrix(1,0,0,1,0,9.119180347398256)"><svg viewBox="0 0 395.52 47.74439972459817" height="47.74439972459817" width="395.52"><g><svg viewBox="0 0 395.52 47.74439972459817" height="47.74439972459817" width="395.52"><g><svg viewBox="0 0 395.52 25.7510478128179" height="25.7510478128179" width="395.52"><g transform="matrix(1,0,0,1,0,0)"><svg width="395.52" viewBox="0.76 -36.5 573.69 37.5" height="25.7510478128179" data-palette-color="#fbfbfb"><g class="undefined-text-0" data-fill-palette-color="primary" id="text-0"><path d="M0.76-34.69L1.05-35.25Q4.61-35.57 7.96-35.71 11.3-35.84 14.58-35.84L14.58-35.84Q17.85-35.84 21.68-35.68 25.51-35.52 30.05-35.21L30.05-35.21 30.35-34.69 28.05-28.76 27.25-29Q27.42-29.86 27.5-30.6 27.59-31.35 27.59-32.01L27.59-32.01Q27.59-32.91 27.44-33.64L27.44-33.64Q24.34-33.84 21.86-33.94 19.38-34.03 17.46-34.06L17.46-34.06 17.46-4.39Q17.46-3.39 17.64-2.69 17.82-1.98 18.26-1.49 18.7-1 19.43-0.7 20.17-0.39 21.29-0.2L21.29-0.2 21.09 0.39Q19.63 0.2 18.55 0.1 17.48 0 16.75 0L16.75 0Q16.06 0 15.22 0.1 14.38 0.2 13.35 0.39L13.35 0.39 13.21 0.15Q13.7-0.56 13.7-2.44L13.7-2.44 13.7-34.06Q11.84-34.03 9.35-33.94 6.86-33.84 3.66-33.64L3.66-33.64Q3.52-32.84 3.52-31.93L3.52-31.93Q3.52-30.64 3.86-29L3.86-29 3.05-28.76 0.76-34.69ZM41.5-32.59L41.5-32.59 41.5-10.3Q41.5-7.62 42.01-5.82 42.53-4.03 43.44-2.95 44.36-1.88 45.64-1.43 46.92-0.98 48.46-0.98L48.46-0.98Q49.92-0.98 51.5-1.38 53.07-1.78 54.65-2.5 56.22-3.22 57.72-4.21 59.23-5.2 60.54-6.35L60.54-6.35 60.54-28.1Q60.54-29.71 60.4-30.8 60.25-31.88 59.86-32.54 59.47-33.2 58.76-33.48 58.05-33.76 57.25-33.76 56.44-33.76 56.25-33.74L56.25-33.74 56.15-34.2Q60.13-35.4 63.79-35.4L63.79-35.4Q64.3-34.11 64.3-32.59L64.3-32.59 64.3-4.39Q64.3-3.39 64.49-2.69 64.67-1.98 65.11-1.49 65.55-1 66.29-0.7 67.04-0.39 68.16-0.2L68.16-0.2 67.94 0.39Q66.48 0.2 65.4 0.1 64.33 0 63.6 0L63.6 0Q62.91 0 62.07 0.1 61.23 0.2 60.2 0.39L60.2 0.39 60.06 0.15Q60.54-0.56 60.54-2.44L60.54-2.44 60.54-4.44Q56.52-1.56 53.26-0.28 50 1 47.17 1L47.17 1Q45.48 1 43.8 0.61 42.11 0.22 40.77-0.73 39.43-1.68 38.58-3.26 37.74-4.83 37.74-7.2L37.74-7.2 37.74-28.1Q37.74-29.71 37.6-30.8 37.45-31.88 37.06-32.54 36.67-33.2 35.96-33.48 35.25-33.76 34.45-33.76 33.64-33.76 33.44-33.74L33.44-33.74 33.35-34.2Q37.33-35.4 41.01-35.4L41.01-35.4Q41.5-34.01 41.5-32.59ZM72.16-34.69L72.46-35.25Q76.02-35.57 79.37-35.71 82.71-35.84 85.98-35.84L85.98-35.84Q89.25-35.84 93.09-35.68 96.92-35.52 101.46-35.21L101.46-35.21 101.75-34.69 99.46-28.76 98.65-29Q98.82-29.86 98.91-30.6 98.99-31.35 98.99-32.01L98.99-32.01Q98.99-32.91 98.85-33.64L98.85-33.64Q95.75-33.84 93.27-33.94 90.79-34.03 88.86-34.06L88.86-34.06 88.86-4.39Q88.86-3.39 89.05-2.69 89.23-1.98 89.67-1.49 90.11-1 90.84-0.7 91.57-0.39 92.7-0.2L92.7-0.2 92.5 0.39Q91.04 0.2 89.96 0.1 88.89 0 88.15 0L88.15 0Q87.47 0 86.63 0.1 85.79 0.2 84.76 0.39L84.76 0.39 84.61 0.15Q85.1-0.56 85.1-2.44L85.1-2.44 85.1-34.06Q83.25-34.03 80.76-33.94 78.27-33.84 75.07-33.64L75.07-33.64Q74.92-32.84 74.92-31.93L74.92-31.93Q74.92-30.64 75.26-29L75.26-29 74.46-28.76 72.16-34.69ZM123.11-36.5L123.11-36.5Q131.27-36.5 135.66-31.35 140.06-26.2 140.06-17.09L140.06-17.09Q140.06-13.23 138.69-9.84 137.32-6.45 135-4.08 132.68-1.71 129.55-0.35 126.41 1 122.97 1L122.97 1Q119.35 1 116.25-0.28 113.15-1.56 110.87-3.93 108.59-6.3 107.29-9.9 106-13.5 106-17.9L106-17.9Q106-21.78 107.38-25.24 108.76-28.71 111.06-31.16 113.37-33.62 116.52-35.06 119.67-36.5 123.11-36.5ZM110.1-18.14L110.1-18.14Q110.1-14.55 110.87-11.56 111.64-8.57 112.93-6.52 114.23-4.47 115.97-3.05 117.72-1.64 119.65-0.99 121.57-0.34 123.65-0.34L123.65-0.34Q126.65-0.34 129.03-1.66 131.41-2.98 132.9-5.26 134.39-7.54 135.17-10.5 135.95-13.45 135.95-16.85L135.95-16.85Q135.95-21.26 134.84-24.8 133.73-28.34 131.85-30.53 129.97-32.71 127.59-33.86 125.21-35.01 122.55-35.01L122.55-35.01Q119.55-35.01 117.14-33.63 114.74-32.25 113.22-29.91 111.71-27.56 110.91-24.55 110.1-21.53 110.1-18.14ZM156.44-18.99L156.44-18.99 156.44-19.8Q158.88-20.07 160.61-20.78 162.34-21.48 163.47-22.58 164.59-23.68 165.11-25.17 165.64-26.66 165.64-28.49L165.64-28.49Q165.57-29.96 165.21-30.96 164.86-31.96 164.03-32.58 163.2-33.2 161.82-33.48 160.44-33.76 158.32-33.76L158.32-33.76Q157.53-33.76 156.67-33.73 155.8-33.69 154.8-33.64L154.8-33.64Q154.95-33.06 154.95-32.4L154.95-32.4 154.95-4.39Q154.95-3.39 155.13-2.69 155.31-1.98 155.75-1.49 156.19-1 156.94-0.7 157.68-0.39 158.8-0.2L158.8-0.2 158.58 0.39Q157.09 0.2 156.02 0.1 154.95 0 154.24 0L154.24 0Q153.58 0 152.72 0.1 151.87 0.2 150.84 0.39L150.84 0.39 150.7 0.15Q151.19-0.56 151.19-2.44L151.19-2.44 151.19-28.1Q151.19-29.71 151.04-30.8 150.89-31.88 150.5-32.54 150.11-33.2 149.4-33.48 148.7-33.76 146.89-33.74L146.89-33.74 146.79-34.45Q148.43-34.67 149.68-34.84 150.94-35.01 152.08-35.14 153.21-35.28 154.32-35.38 155.43-35.47 156.46-35.53 157.49-35.6 158.11-35.62 158.73-35.64 159.29-35.64L159.29-35.64Q161.51-35.64 163.41-35.31 165.3-34.99 166.68-34.17 168.06-33.35 168.83-31.96 169.59-30.57 169.59-28.44L169.59-28.44Q169.59-26.86 168.9-25.44 168.2-24.02 167.02-22.85 165.83-21.68 164.26-20.79 162.69-19.9 160.9-19.36L160.9-19.36 160.9-19.09 170.84-4.91Q172.13-3.03 174.18-2L174.18-2Q176.19-1.15 176.61-1 177.04-0.85 177.6-0.66L177.6-0.66 177.6-0.2Q173.28-0.2 170.35 0.71L170.35 0.71 169.99 0.49Q169.99 0.15 169.57-0.52 169.16-1.2 168.56-2.04 167.96-2.88 166.42-5.09 164.88-7.3 156.44-18.99ZM189.27-32.59L189.27-32.59 189.27-4.39Q189.27-2.42 190.08-1.51 190.88-0.61 193.13-0.2L193.13-0.2 192.93 0.39Q190.22 0.02 188.81 0 187.39-0.02 185.19 0.39L185.19 0.39 185.02 0.15Q185.53-0.56 185.53-2.44L185.53-2.44 185.53-28.1Q185.53-31.54 184.7-32.74 183.87-33.94 181.24-33.74L181.24-33.74 181.14-34.2Q185.17-35.4 188.78-35.4L188.78-35.4Q189.27-34.06 189.27-32.59ZM197.37-0.49L212.29-33.84Q213.12-34.35 214.19-35.79L214.19-35.79 214.44-35.79 227.89-3.39Q228.79-1.22 231.58-0.34L231.58-0.34 231.58 0.1Q229.99-0.07 227.77 0.04 225.55 0.15 223.84 0.44L223.84 0.44 223.64 0.2Q224.13-0.44 223.87-1.93 223.62-3.42 222.37-6.45L222.37-6.45 218.34-16.55Q211.17-16.67 206.48-16.5L206.48-16.5 200.84-3.39Q200.33-2.27 201.22-1.51 202.11-0.76 204.72-0.24L204.72-0.24 204.62 0.2Q200.38-0.12 197.69 0L197.69 0Q197.54-0.15 197.37-0.49L197.37-0.49ZM212.63-30.69L207.14-17.94Q210.68-17.85 217.73-17.94L217.73-17.94 212.63-30.69ZM241.44-32.59L241.44-1.49 249.54-1.76Q251.33-1.81 252.57-2.16 253.82-2.51 254.72-3.28 255.62-4.05 256.2-4.9 256.77-5.74 257.48-7.15L257.48-7.15 258.19-6.86 255.79-0.34 255.38 0 238.14 0Q237.68-1.03 237.68-2.39L237.68-2.39 237.68-28.1Q237.68-31.54 236.86-32.74 236.04-33.94 233.38-33.74L233.38-33.74 233.28-34.2Q237.31-35.4 240.95-35.4L240.95-35.4Q241.44-34.06 241.44-32.59L241.44-32.59Z" fill="#fbfbfb" data-fill-palette-color="primary"></path><path d="M289.05-3.1L289.05-3.1 289.05-7.1Q289.05-10.55 288.22-11.73 287.39-12.92 284.73-12.74L284.73-12.74 284.63-13.21Q288.66-14.4 292.3-14.4L292.3-14.4Q292.78-13.06 292.78-11.6L292.78-11.6 292.78-4.59Q292.78-2.29 293.25-1.66L293.25-1.66 293.1-1.39Q291.17-1.39 288.93-0.79 286.68-0.2 284.12 0.4 281.55 1 278.89 1L278.89 1Q275.21 1 272.03-0.35 268.86-1.71 266.58-4.13 264.29-6.54 262.99-10.08 261.68-13.62 261.68-17.8L261.68-17.8Q261.68-21.63 262.72-24.77 263.76-27.91 265.55-30.05 267.35-32.2 269.86-33.68 272.37-35.16 275.27-35.83 278.16-36.5 281.43-36.5L281.43-36.5Q287.02-36.5 291.93-34.2L291.93-34.2Q291.08-31.15 289.49-27.76L289.49-27.76 288.83-28Q289.22-30.91 289-32.79L289-32.79Q287.93-33.4 286.88-33.8 285.83-34.2 284.65-34.44 283.48-34.67 282.13-34.75 280.77-34.84 279.09-34.84L279.09-34.84Q276.84-34.84 274.9-34.27 272.96-33.69 271.28-32.37 269.59-31.05 268.4-29.06 267.2-27.08 266.52-24.11 265.83-21.14 265.83-17.41L265.83-17.41Q265.83-13.82 267.05-10.64 268.27-7.47 270.29-5.3 272.3-3.13 274.94-1.87 277.57-0.61 280.38-0.61L280.38-0.61Q283.17-0.61 285.06-1.11 286.95-1.61 289.05-3.1ZM307.43-18.19L307.43-1.49 316.02-1.76Q317.81-1.81 319.03-2.17 320.25-2.54 321.13-3.21 322.01-3.88 322.67-4.87 323.32-5.86 323.98-7.15L323.98-7.15 324.69-6.86 322.27-0.34 321.88 0 304.13 0Q303.67-1 303.67-2.39L303.67-2.39 303.67-28.34Q303.67-29.96 303.52-30.99 303.38-32.03 302.99-32.65 302.6-33.28 301.9-33.52 301.21-33.76 300.11-33.76L300.11-33.76Q299.94-33.76 299.75-33.76 299.57-33.76 299.37-33.74L299.37-33.74 299.28-34.45Q306.23-35.55 314.61-35.55L314.61-35.55Q318.88-35.55 323.57-35.25L323.57-35.25 323.74-34.84 321.42-28.76 320.64-29Q320.83-29.93 320.93-30.71 321.03-31.49 321.03-32.24 321.03-32.98 320.83-33.64L320.83-33.64Q319-33.81 317.23-33.9 315.46-33.98 313.71-33.98L313.71-33.98Q310.51-33.98 307.43-33.69L307.43-33.69 307.43-19.9 320.79-20.63 321.03-20.36 319.88-18.36Q318.78-18.41 317.66-18.43 316.54-18.46 315.37-18.46L315.37-18.46Q313.46-18.46 311.48-18.38 309.51-18.31 307.43-18.19L307.43-18.19ZM361.38-34.11L361.38 0 360.38 0Q358.72-2.25 350.86-12.17 343-22.09 339.63-26.54L339.63-26.54Q338.17-28.44 336.82-31.01L336.82-31.01 336.68-30.91 336.68-3.15Q336.68-2.22 337.27-1.71 337.87-1.2 338.59-1.01 339.31-0.83 340.58-0.61 341.85-0.39 342.07-0.34L342.07-0.34 342.07 0.15Q337.46-0.15 334.67 0.15L334.67 0.15Q334.53-0.51 334.53-1.15L334.53-1.15 334.53-29.25Q334.45-30.98 333.92-32.35L333.92-32.35Q333.21-34.25 330.67-34.06L330.67-34.06 330.67-34.55Q334.09-35.4 337.38-35.4L337.38-35.4 355.77-11.89Q357.06-10.25 357.83-8.95 358.6-7.64 359.33-5.69L359.33-5.69 359.33-31.1Q359.33-32.81 358.05-33.53 356.77-34.25 354.03-34.06L354.03-34.06 353.91-34.55Q357.09-35.33 360.97-35.4L360.97-35.4Q361.38-34.77 361.38-34.11L361.38-34.11ZM378.28-18.19L378.28-1.49 386.87-1.76Q388.65-1.81 389.87-2.17 391.09-2.54 391.97-3.21 392.85-3.88 393.51-4.87 394.17-5.86 394.83-7.15L394.83-7.15 395.54-6.86 393.12-0.34 392.73 0 374.98 0Q374.52-1 374.52-2.39L374.52-2.39 374.52-28.34Q374.52-29.96 374.37-30.99 374.22-32.03 373.83-32.65 373.44-33.28 372.75-33.52 372.05-33.76 370.95-33.76L370.95-33.76Q370.78-33.76 370.6-33.76 370.41-33.76 370.22-33.74L370.22-33.74 370.12-34.45Q377.08-35.55 385.45-35.55L385.45-35.55Q389.73-35.55 394.41-35.25L394.41-35.25 394.58-34.84 392.26-28.76 391.48-29Q391.68-29.93 391.78-30.71 391.87-31.49 391.87-32.24 391.87-32.98 391.68-33.64L391.68-33.64Q389.85-33.81 388.08-33.9 386.31-33.98 384.55-33.98L384.55-33.98Q381.35-33.98 378.28-33.69L378.28-33.69 378.28-19.9 391.63-20.63 391.87-20.36 390.73-18.36Q389.63-18.41 388.5-18.43 387.38-18.46 386.21-18.46L386.21-18.46Q384.31-18.46 382.33-18.38 380.35-18.31 378.28-18.19L378.28-18.19ZM411.16-18.99L411.16-18.99 411.16-19.8Q413.6-20.07 415.33-20.78 417.07-21.48 418.19-22.58 419.31-23.68 419.84-25.17 420.36-26.66 420.36-28.49L420.36-28.49Q420.29-29.96 419.94-30.96 419.58-31.96 418.75-32.58 417.92-33.2 416.54-33.48 415.16-33.76 413.04-33.76L413.04-33.76Q412.26-33.76 411.39-33.73 410.52-33.69 409.52-33.64L409.52-33.64Q409.67-33.06 409.67-32.4L409.67-32.4 409.67-4.39Q409.67-3.39 409.85-2.69 410.04-1.98 410.47-1.49 410.91-1 411.66-0.7 412.4-0.39 413.53-0.2L413.53-0.2 413.31 0.39Q411.82 0.2 410.74 0.1 409.67 0 408.96 0L408.96 0Q408.3 0 407.45 0.1 406.59 0.2 405.57 0.39L405.57 0.39 405.42 0.15Q405.91-0.56 405.91-2.44L405.91-2.44 405.91-28.1Q405.91-29.71 405.76-30.8 405.62-31.88 405.23-32.54 404.84-33.2 404.13-33.48 403.42-33.76 401.61-33.74L401.61-33.74 401.51-34.45Q403.15-34.67 404.41-34.84 405.67-35.01 406.8-35.14 407.94-35.28 409.05-35.38 410.16-35.47 411.18-35.53 412.21-35.6 412.83-35.62 413.45-35.64 414.01-35.64L414.01-35.64Q416.24-35.64 418.13-35.31 420.02-34.99 421.4-34.17 422.78-33.35 423.55-31.96 424.32-30.57 424.32-28.44L424.32-28.44Q424.32-26.86 423.62-25.44 422.93-24.02 421.74-22.85 420.56-21.68 418.98-20.79 417.41-19.9 415.63-19.36L415.63-19.36 415.63-19.09 425.56-4.91Q426.86-3.03 428.91-2L428.91-2Q430.91-1.15 431.34-1 431.76-0.85 432.33-0.66L432.33-0.66 432.33-0.2Q428-0.2 425.07 0.71L425.07 0.71 424.71 0.49Q424.71 0.15 424.29-0.52 423.88-1.2 423.28-2.04 422.68-2.88 421.14-5.09 419.61-7.3 411.16-18.99ZM434.59-0.49L449.51-33.84Q450.34-34.35 451.41-35.79L451.41-35.79 451.66-35.79 465.11-3.39Q466.01-1.22 468.8-0.34L468.8-0.34 468.8 0.1Q467.21-0.07 464.99 0.04 462.77 0.15 461.06 0.44L461.06 0.44 460.86 0.2Q461.35-0.44 461.09-1.93 460.84-3.42 459.59-6.45L459.59-6.45 455.57-16.55Q448.39-16.67 443.7-16.5L443.7-16.5 438.06-3.39Q437.55-2.27 438.44-1.51 439.33-0.76 441.94-0.24L441.94-0.24 441.84 0.2Q437.6-0.12 434.91 0L434.91 0Q434.76-0.15 434.59-0.49L434.59-0.49ZM449.85-30.69L444.36-17.94Q447.9-17.85 454.95-17.94L454.95-17.94 449.85-30.69ZM469.01-34.69L469.31-35.25Q472.87-35.57 476.22-35.71 479.56-35.84 482.83-35.84L482.83-35.84Q486.1-35.84 489.94-35.68 493.77-35.52 498.31-35.21L498.31-35.21 498.6-34.69 496.31-28.76 495.5-29Q495.68-29.86 495.76-30.6 495.85-31.35 495.85-32.01L495.85-32.01Q495.85-32.91 495.7-33.64L495.7-33.64Q492.6-33.84 490.12-33.94 487.64-34.03 485.71-34.06L485.71-34.06 485.71-4.39Q485.71-3.39 485.9-2.69 486.08-1.98 486.52-1.49 486.96-1 487.69-0.7 488.42-0.39 489.55-0.2L489.55-0.2 489.35 0.39Q487.89 0.2 486.81 0.1 485.74 0 485.01 0L485.01 0Q484.32 0 483.48 0.1 482.64 0.2 481.61 0.39L481.61 0.39 481.47 0.15Q481.95-0.56 481.95-2.44L481.95-2.44 481.95-34.06Q480.1-34.03 477.61-33.94 475.12-33.84 471.92-33.64L471.92-33.64Q471.77-32.84 471.77-31.93L471.77-31.93Q471.77-30.64 472.12-29L472.12-29 471.31-28.76 469.01-34.69ZM519.96-36.5L519.96-36.5Q528.12-36.5 532.51-31.35 536.91-26.2 536.91-17.09L536.91-17.09Q536.91-13.23 535.54-9.84 534.17-6.45 531.85-4.08 529.53-1.71 526.4-0.35 523.26 1 519.82 1L519.82 1Q516.2 1 513.1-0.28 510-1.56 507.72-3.93 505.44-6.3 504.14-9.9 502.85-13.5 502.85-17.9L502.85-17.9Q502.85-21.78 504.23-25.24 505.61-28.71 507.92-31.16 510.22-33.62 513.37-35.06 516.52-36.5 519.96-36.5ZM506.95-18.14L506.95-18.14Q506.95-14.55 507.72-11.56 508.49-8.57 509.78-6.52 511.08-4.47 512.82-3.05 514.57-1.64 516.5-0.99 518.43-0.34 520.5-0.34L520.5-0.34Q523.5-0.34 525.88-1.66 528.27-2.98 529.75-5.26 531.24-7.54 532.03-10.5 532.81-13.45 532.81-16.85L532.81-16.85Q532.81-21.26 531.7-24.8 530.58-28.34 528.7-30.53 526.82-32.71 524.44-33.86 522.06-35.01 519.4-35.01L519.4-35.01Q516.4-35.01 514-33.63 511.59-32.25 510.08-29.91 508.56-27.56 507.76-24.55 506.95-21.53 506.95-18.14ZM553.29-18.99L553.29-18.99 553.29-19.8Q555.73-20.07 557.46-20.78 559.2-21.48 560.32-22.58 561.44-23.68 561.97-25.17 562.49-26.66 562.49-28.49L562.49-28.49Q562.42-29.96 562.06-30.96 561.71-31.96 560.88-32.58 560.05-33.2 558.67-33.48 557.29-33.76 555.17-33.76L555.17-33.76Q554.39-33.76 553.52-33.73 552.65-33.69 551.65-33.64L551.65-33.64Q551.8-33.06 551.8-32.4L551.8-32.4 551.8-4.39Q551.8-3.39 551.98-2.69 552.16-1.98 552.6-1.49 553.04-1 553.79-0.7 554.53-0.39 555.66-0.2L555.66-0.2 555.44 0.39Q553.95 0.2 552.87 0.1 551.8 0 551.09 0L551.09 0Q550.43 0 549.58 0.1 548.72 0.2 547.7 0.39L547.7 0.39 547.55 0.15Q548.04-0.56 548.04-2.44L548.04-2.44 548.04-28.1Q548.04-29.71 547.89-30.8 547.75-31.88 547.35-32.54 546.96-33.2 546.26-33.48 545.55-33.76 543.74-33.74L543.74-33.74 543.64-34.45Q545.28-34.67 546.54-34.84 547.79-35.01 548.93-35.14 550.06-35.28 551.18-35.38 552.29-35.47 553.31-35.53 554.34-35.6 554.96-35.62 555.58-35.64 556.14-35.64L556.14-35.64Q558.37-35.64 560.26-35.31 562.15-34.99 563.53-34.17 564.91-33.35 565.68-31.96 566.45-30.57 566.45-28.44L566.45-28.44Q566.45-26.86 565.75-25.44 565.05-24.02 563.87-22.85 562.69-21.68 561.11-20.79 559.54-19.9 557.75-19.36L557.75-19.36 557.75-19.09 567.69-4.91Q568.99-3.03 571.04-2L571.04-2Q573.04-1.15 573.47-1 573.89-0.85 574.45-0.66L574.45-0.66 574.45-0.2Q570.13-0.2 567.2 0.71L567.2 0.71 566.84 0.49Q566.84 0.15 566.42-0.52 566.01-1.2 565.41-2.04 564.81-2.88 563.27-5.09 561.73-7.3 553.29-18.99Z" fill="#2f76db" data-fill-palette-color="accent"></path></g></svg></g></svg></g><g transform="matrix(1,0,0,1,208.73447723537765,31.8302521762767)"><svg viewBox="0 0 186.78552276462233 15.914147548321463" height="15.914147548321463" width="186.78552276462233"><g transform="matrix(1,0,0,1,0,0)"><svg width="186.78552276462233" viewBox="1.95 -38.3 533.39 45.449999999999996" height="15.914147548321463" data-palette-color="#fbfbfb"><path d="M22.75-26.05L21.05-31.75Q18.35-32.7 15.5-32.7 12.65-32.7 10.5-31.08 8.35-29.45 8.35-26.25L8.35-26.25Q8.35-23.15 11-21.5L11-21.5Q12.45-20.6 13.38-20.2 14.3-19.8 16.07-19.15 17.85-18.5 18.5-18.23 19.15-17.95 20.43-17.38 21.7-16.8 22.33-16.35 22.95-15.9 23.85-15.1 24.75-14.3 25.2-13.5L25.2-13.5Q26.3-11.45 26.3-9.05L26.3-9.05Q26.3-4.8 22.85-2.1 19.4 0.6 13.9 0.6L13.9 0.6Q9.7 0.6 6.05-0.8L6.05-0.8Q4.25-1.45 3.1-2.6 1.95-3.75 1.95-5.25L1.95-5.25Q1.95-7.7 5.5-8.6L5.5-8.6Q6.05-5.6 7.6-3.75 9.15-1.9 10.83-1.3 12.5-0.7 14.93-0.7 17.35-0.7 19.5-2.27 21.65-3.85 21.65-7.45L21.65-7.45Q21.65-10.2 19.15-11.95L19.15-11.95Q17.15-13.3 14.23-14.5 11.3-15.7 10.3-16.13 9.3-16.55 7.73-17.48 6.15-18.4 5.4-19.3L5.4-19.3Q3.45-21.65 3.45-24.7L3.45-24.7Q3.45-29.4 6.8-31.8 10.15-34.2 16.05-34.2L16.05-34.2Q19.6-34.2 24.3-33.4L24.3-33.4 24.3-26.05 22.75-26.05ZM35.35-5.4L35.35-5.4Q35.35-2.15 38-1.55L38-1.55Q38.6-1.4 39.15-1.4L39.15-1.4Q41.05-1.4 43.1-3.03 45.15-4.65 45.25-7.4L45.25-7.4 45.25-11.7Q35.35-11.6 35.35-5.4ZM37.35 0.6L37.35 0.6Q34.5 0.6 32.47-0.98 30.45-2.55 30.45-5.4L30.45-5.4Q30.5-9.25 34.32-11.15 38.15-13.05 45.25-13.05L45.25-13.05 45.25-17.35Q45.25-23.7 40.65-23.7L40.65-23.7Q38.3-23.7 36.85-21.75L36.85-21.75Q35.85-20.4 35.85-18.4L35.85-18.4Q35.85-17.55 36.05-16.6L36.05-16.6Q35.35-16.1 34.62-16.1 33.9-16.1 33.2-16.4L33.2-16.4Q31.6-17 31.6-18.7L31.6-18.7Q31.6-21 33.25-22.5L33.25-22.5Q35.95-24.95 40.7-24.95 45.45-24.95 47.6-22.93 49.75-20.9 49.75-16.55L49.75-16.55 49.75-1.4 53.95-1.2 54-0.05 45.65 0.55 45.2-3.9Q42.9 0.6 37.35 0.6ZM53.65-23.2L53.65-24.4 64.15-24.4 64.15-23.1 60.75-22.8 67.85-5.35 73.85-22.15 69.85-23.1 69.85-24.4 79.45-24.4 79.45-23.1 75.95-22.15 67.65 0 65.65 0 56-22.85 53.65-23.2ZM92.54 0.55Q87.39 0.55 84.24-2.95 81.09-6.45 81.09-12.2 81.09-17.95 84.42-21.45 87.74-24.95 92.79-24.95 97.84-24.95 100.34-22.68 102.84-20.4 102.84-16.35L102.84-16.35Q102.84-15.15 102.64-13.95L102.64-13.95 86.49-13.95 86.49-12.2Q86.49-6.6 88.09-3.73 89.69-0.85 93.34-0.85L93.34-0.85Q98.49-0.85 101.29-5.35L101.29-5.35Q102.39-5 102.39-4.3L102.39-4.3Q102.39-3.05 100.09-1.4L100.09-1.4Q98.99-0.6 96.99-0.03 94.99 0.55 92.54 0.55L92.54 0.55ZM98.09-17.4L98.09-17.4Q98.09-19.7 97.14-21.35L97.14-21.35Q95.84-23.55 92.94-23.55L92.94-23.55Q87.54-23.55 86.64-15.75L86.64-15.75 97.99-15.75Q98.09-16.6 98.09-17.4ZM135.14-5.2L135.14-5.2Q135.14-5.05 135.09-4.85L135.09-4.85Q134.29-2.4 132.41-0.93 130.54 0.55 128.04 0.55 125.54 0.55 123.86-0.88 122.19-2.3 122.19-6.45L122.19-6.45Q122.19-7.6 122.44-23.1L122.44-23.1 118.99-23.1 118.99-24.4 122.49-24.4 122.54-31.75 127.44-31.75 127.29-24.4 134.44-24.4 134.44-23.1 127.29-23.1Q127.04-6.95 127.04-4.2L127.04-4.2Q127.04-0.85 129.24-0.85L129.24-0.85Q130.59-0.85 132.06-2.4 133.54-3.95 134.14-5.9L134.14-5.9Q135.14-5.9 135.14-5.2ZM146.39-32.58Q146.39-31.35 145.54-30.48 144.69-29.6 143.41-29.6 142.14-29.6 141.29-30.45 140.44-31.3 140.44-32.58 140.44-33.85 141.29-34.73 142.14-35.6 143.39-35.6 144.64-35.6 145.51-34.7 146.39-33.8 146.39-32.58ZM149.39 0L137.89 0 137.89-1.2 141.19-1.45 141.19-22.7 136.79-22.85 136.79-24 146.09-24.65 146.09-1.45 149.39-1.2 149.39 0ZM185.83-24.75L185.83-24.75Q193.83-24.75 193.83-17.05L193.83-17.05Q193.83-11.5 193.48-1.45L193.48-1.45 197.03-1.2 197.03 0 185.88 0 185.88-1.2 188.58-1.4Q188.93-14.6 188.93-17.43 188.93-20.25 187.88-21.65 186.83-23.05 184.48-23.05 182.13-23.05 180.13-21.08 178.13-19.1 177.43-16.85L177.43-16.85Q177.43-11.45 177.08-1.45L177.08-1.45 180.63-1.2 180.63 0 169.48 0 169.48-1.2 172.18-1.4Q172.53-14.6 172.53-17.43 172.53-20.25 171.48-21.65 170.43-23.05 167.86-23.05 165.28-23.05 163.03-20.33 160.78-17.6 160.78-15.5L160.78-15.5 160.78-1.45 164.53-1.2 164.53 0 152.63 0 152.63-1.2 155.88-1.4 155.88-22.6 151.63-22.8 151.63-23.95 160.58-24.55 160.33-19.4 160.83-19.4Q162.18-22.05 164.46-23.4 166.73-24.75 169.43-24.75L169.43-24.75Q176.18-24.75 177.23-19.35L177.23-19.35 177.23-19.4Q178.58-22.05 180.86-23.4 183.13-24.75 185.83-24.75ZM211.88 0.55Q206.73 0.55 203.58-2.95 200.43-6.45 200.43-12.2 200.43-17.95 203.76-21.45 207.08-24.95 212.13-24.95 217.18-24.95 219.68-22.68 222.18-20.4 222.18-16.35L222.18-16.35Q222.18-15.15 221.98-13.95L221.98-13.95 205.83-13.95 205.83-12.2Q205.83-6.6 207.43-3.73 209.03-0.85 212.68-0.85L212.68-0.85Q217.83-0.85 220.63-5.35L220.63-5.35Q221.73-5 221.73-4.3L221.73-4.3Q221.73-3.05 219.43-1.4L219.43-1.4Q218.33-0.6 216.33-0.03 214.33 0.55 211.88 0.55L211.88 0.55ZM217.43-17.4L217.43-17.4Q217.43-19.7 216.48-21.35L216.48-21.35Q215.18-23.55 212.28-23.55L212.28-23.55Q206.88-23.55 205.98-15.75L205.98-15.75 217.33-15.75Q217.43-16.6 217.43-17.4ZM233.93-1.4L233.93-1.4Q233.93 1.45 231.68 3.95 229.43 6.45 227.83 7.15L227.83 7.15 227.03 6.05Q228.63 5.2 229.73 3.6 230.83 2 231.03 0.25L231.03 0.25Q230.53 0.55 229.58 0.55 228.63 0.55 227.98-0.28 227.33-1.1 227.33-2.48 227.33-3.85 228.3-4.65 229.28-5.45 230.73-5.45 232.18-5.45 233.05-4.45 233.93-3.45 233.93-1.4ZM266.82-5.2L266.82-5.2Q266.82-5.05 266.77-4.85L266.77-4.85Q265.97-2.4 264.1-0.93 262.22 0.55 259.72 0.55 257.22 0.55 255.55-0.88 253.87-2.3 253.87-6.45L253.87-6.45Q253.87-7.6 254.12-23.1L254.12-23.1 250.67-23.1 250.67-24.4 254.17-24.4 254.22-31.75 259.12-31.75 258.97-24.4 266.12-24.4 266.12-23.1 258.97-23.1Q258.72-6.95 258.72-4.2L258.72-4.2Q258.72-0.85 260.92-0.85L260.92-0.85Q262.27-0.85 263.75-2.4 265.22-3.95 265.82-5.9L265.82-5.9Q266.82-5.9 266.82-5.2ZM281.32 0.55Q276.17 0.55 273.02-2.95 269.87-6.45 269.87-12.2 269.87-17.95 273.2-21.45 276.52-24.95 281.57-24.95 286.62-24.95 289.12-22.68 291.62-20.4 291.62-16.35L291.62-16.35Q291.62-15.15 291.42-13.95L291.42-13.95 275.27-13.95 275.27-12.2Q275.27-6.6 276.87-3.73 278.47-0.85 282.12-0.85L282.12-0.85Q287.27-0.85 290.07-5.35L290.07-5.35Q291.17-5 291.17-4.3L291.17-4.3Q291.17-3.05 288.87-1.4L288.87-1.4Q287.77-0.6 285.77-0.03 283.77 0.55 281.32 0.55L281.32 0.55ZM286.87-17.4L286.87-17.4Q286.87-19.7 285.92-21.35L285.92-21.35Q284.62-23.55 281.72-23.55L281.72-23.55Q276.32-23.55 275.42-15.75L275.42-15.75 286.77-15.75Q286.87-16.6 286.87-17.4ZM300.77-5.4L300.77-5.4Q300.77-2.15 303.42-1.55L303.42-1.55Q304.02-1.4 304.57-1.4L304.57-1.4Q306.47-1.4 308.52-3.03 310.57-4.65 310.67-7.4L310.67-7.4 310.67-11.7Q300.77-11.6 300.77-5.4ZM302.77 0.6L302.77 0.6Q299.92 0.6 297.89-0.98 295.87-2.55 295.87-5.4L295.87-5.4Q295.92-9.25 299.74-11.15 303.57-13.05 310.67-13.05L310.67-13.05 310.67-17.35Q310.67-23.7 306.07-23.7L306.07-23.7Q303.72-23.7 302.27-21.75L302.27-21.75Q301.27-20.4 301.27-18.4L301.27-18.4Q301.27-17.55 301.47-16.6L301.47-16.6Q300.77-16.1 300.04-16.1 299.32-16.1 298.62-16.4L298.62-16.4Q297.02-17 297.02-18.7L297.02-18.7Q297.02-21 298.67-22.5L298.67-22.5Q301.37-24.95 306.12-24.95 310.87-24.95 313.02-22.93 315.17-20.9 315.17-16.55L315.17-16.55 315.17-1.4 319.37-1.2 319.42-0.05 311.07 0.55 310.62-3.9Q308.32 0.6 302.77 0.6ZM334.42-24.95L334.42-24.95Q337.22-24.95 339.82-23.75L339.82-23.75Q341.27-23.1 342.14-21.75 343.02-20.4 343.02-18.6 343.02-16.8 341.42-16.15L341.42-16.15Q340.77-15.9 340.04-15.9 339.32-15.9 338.57-16.4L338.57-16.4Q338.77-17.45 338.77-18.88 338.77-20.3 337.87-21.6L337.87-21.6Q336.57-23.55 334.17-23.55L334.17-23.55Q327.22-23.55 327.22-12.1L327.22-12.1Q327.22-6.5 328.84-3.68 330.47-0.85 334.12-0.85L334.12-0.85Q338.77-0.85 341.57-5.35L341.57-5.35Q342.67-5 342.67-4.28 342.67-3.55 341.74-2.48 340.82-1.4 338.54-0.43 336.27 0.55 333.32 0.55L333.32 0.55Q328.17 0.55 324.99-2.95 321.82-6.45 321.82-12.2 321.82-17.95 325.24-21.45 328.67-24.95 334.42-24.95ZM363.01-24.75L363.01-24.75Q371.01-24.75 371.01-17.05L371.01-17.05Q371.01-11.5 370.66-1.45L370.66-1.45 374.21-1.2 374.21 0 363.06 0 363.06-1.2 365.76-1.4Q366.11-14.6 366.11-17.43 366.11-20.25 365.06-21.65 364.01-23.05 361.44-23.05 358.86-23.05 356.61-20.6 354.36-18.15 354.36-16.1L354.36-16.1 354.36-1.45 357.66-1.2 357.66 0 346.16 0 346.16-1.2 349.46-1.45 349.46-35.9 345.06-36.1 345.01-37.25 354.36-38.3Q354.06-21.15 354.01-20L354.01-20 354.41-20Q355.76-22.3 358.04-23.53 360.31-24.75 363.01-24.75ZM402.86-0.9L402.86-0.9Q404.76-0.9 406.13-1.7 407.51-2.5 408.28-3.7 409.06-4.9 409.51-6.75L409.51-6.75Q410.16-9.7 410.16-14.2 410.16-18.7 408.61-21.05 407.06-23.4 404.26-23.4 401.46-23.4 399.13-21.03 396.81-18.65 396.81-16.65L396.81-16.65 396.91-2.75Q399.31-0.9 402.86-0.9ZM387.51-37.25L396.86-38.3 396.81-27.6Q396.81-22.5 396.56-20.35L396.56-20.35 397.01-20.35Q398.36-22.55 400.76-23.75 403.16-24.95 405.91-24.95L405.91-24.95Q410.06-24.95 412.86-22.08 415.66-19.2 415.66-12.98 415.66-6.75 412.31-3.08 408.96 0.6 402.76 0.6L402.76 0.6Q401.36 0.6 399.53 0.15 397.71-0.3 396.56-1.05L396.56-1.05 391.96 0.55 391.96-35.9 387.56-36.1 387.51-37.25ZM431.76 0.55Q426.61 0.55 423.46-2.95 420.31-6.45 420.31-12.2 420.31-17.95 423.63-21.45 426.96-24.95 432.01-24.95 437.06-24.95 439.56-22.68 442.06-20.4 442.06-16.35L442.06-16.35Q442.06-15.15 441.86-13.95L441.86-13.95 425.71-13.95 425.71-12.2Q425.71-6.6 427.31-3.73 428.91-0.85 432.56-0.85L432.56-0.85Q437.71-0.85 440.51-5.35L440.51-5.35Q441.61-5 441.61-4.3L441.61-4.3Q441.61-3.05 439.31-1.4L439.31-1.4Q438.21-0.6 436.21-0.03 434.21 0.55 431.76 0.55L431.76 0.55ZM437.31-17.4L437.31-17.4Q437.31-19.7 436.36-21.35L436.36-21.35Q435.06-23.55 432.16-23.55L432.16-23.55Q426.76-23.55 425.86-15.75L425.86-15.75 437.21-15.75Q437.31-16.6 437.31-17.4ZM461.65-5.2L461.65-5.2Q461.65-5.05 461.6-4.85L461.6-4.85Q460.8-2.4 458.93-0.93 457.05 0.55 454.55 0.55 452.05 0.55 450.38-0.88 448.7-2.3 448.7-6.45L448.7-6.45Q448.7-7.6 448.95-23.1L448.95-23.1 445.5-23.1 445.5-24.4 449-24.4 449.05-31.75 453.95-31.75 453.8-24.4 460.95-24.4 460.95-23.1 453.8-23.1Q453.55-6.95 453.55-4.2L453.55-4.2Q453.55-0.85 455.75-0.85L455.75-0.85Q457.1-0.85 458.58-2.4 460.05-3.95 460.65-5.9L460.65-5.9Q461.65-5.9 461.65-5.2ZM479.75-5.2L479.75-5.2Q479.75-5.05 479.7-4.85L479.7-4.85Q478.9-2.4 477.03-0.93 475.15 0.55 472.65 0.55 470.15 0.55 468.48-0.88 466.8-2.3 466.8-6.45L466.8-6.45Q466.8-7.6 467.05-23.1L467.05-23.1 463.6-23.1 463.6-24.4 467.1-24.4 467.15-31.75 472.05-31.75 471.9-24.4 479.05-24.4 479.05-23.1 471.9-23.1Q471.65-6.95 471.65-4.2L471.65-4.2Q471.65-0.85 473.85-0.85L473.85-0.85Q475.2-0.85 476.68-2.4 478.15-3.95 478.75-5.9L478.75-5.9Q479.75-5.9 479.75-5.2ZM494.25 0.55Q489.1 0.55 485.95-2.95 482.8-6.45 482.8-12.2 482.8-17.95 486.12-21.45 489.45-24.95 494.5-24.95 499.55-24.95 502.05-22.68 504.55-20.4 504.55-16.35L504.55-16.35Q504.55-15.15 504.35-13.95L504.35-13.95 488.2-13.95 488.2-12.2Q488.2-6.6 489.8-3.73 491.4-0.85 495.05-0.85L495.05-0.85Q500.2-0.85 503-5.35L503-5.35Q504.1-5 504.1-4.3L504.1-4.3Q504.1-3.05 501.8-1.4L501.8-1.4Q500.7-0.6 498.7-0.03 496.7 0.55 494.25 0.55L494.25 0.55ZM499.8-17.4L499.8-17.4Q499.8-19.7 498.85-21.35L498.85-21.35Q497.55-23.55 494.65-23.55L494.65-23.55Q489.25-23.55 488.35-15.75L488.35-15.75 499.7-15.75Q499.8-16.6 499.8-17.4ZM524.35-25L524.35-25Q525.65-25 526.4-24.38 527.15-23.75 527.15-22.65L527.15-22.65Q527.15-20.75 525.7-20.15L525.7-20.15Q524.9-20.8 522.8-20.8 520.7-20.8 518.77-19.43 516.85-18.05 516.85-16.3L516.85-16.3 516.85-1.45 521.35-1.2 521.35 0 508.65 0 508.65-1.2 511.95-1.4 511.95-22.75 508-22.95 508-24.1 516.85-24.65 516.55-18.5 516.75-18.5Q517.6-21.2 519.87-23.1 522.15-25 524.35-25ZM535.34-2.38Q535.34-1.15 534.49-0.28 533.64 0.6 532.37 0.6 531.09 0.6 530.24-0.25 529.39-1.1 529.39-2.38 529.39-3.65 530.24-4.53 531.09-5.4 532.34-5.4 533.59-5.4 534.47-4.5 535.34-3.6 535.34-2.38Z" opacity="1" transform="matrix(1,0,0,1,0,0)" fill="#fbfbfb" class="undefined-text-1" data-fill-palette-color="secondary" id="text-1"></path></svg></g></svg></g></svg></g></svg></g><g transform="matrix(1,0,0,1,401.5992043634588,0)"><svg viewBox="0 0 65.98276041939468 65.98276041939468" height="65.98276041939468" width="65.98276041939468"><g data-palette-color="#2f76db"><rect width="18.03528784796788" height="65.98276041939468" fill="#2f76db" stroke="transparent" data-fill-palette-color="accent" x="0" fill-opacity="1"></rect><rect width="18.03528784796788" height="65.98276041939468" fill="#2f76db" stroke="transparent" data-fill-palette-color="accent" x="21.99425347313156" fill-opacity="0.75"></rect><rect width="18.03528784796788" height="65.98276041939468" fill="#2f76db" stroke="transparent" data-fill-palette-color="accent" x="43.98850694626312" fill-opacity="0.5"></rect></g></svg></g></svg></g><defs></defs></svg><rect width="395.52" height="55.81374682233252" fill="none" stroke="none" visibility="hidden"></rect></g></svg></g></svg>